<svg data-name="Layer 1" xmlns="http://www.w3.org/2000/svg" viewBox="0 0 98.73 84.87">
  <path d="M89.41 67.23A9.39 9.39 0 0180.17 58a9.28 9.28 0 0118.56 0 9.46 9.46 0 01-9.32 9.23z" fill-rule="evenodd" fill="#ff6687"/>
  <path d="M60.35 66.42L49.76 50.67l-4.43 4.77v11H31.57V1.26h13.76v35.46L59 21.69h17.83L59.27 40.5l17.92 25.92zM15.48 16a8 8 0 118.14-8 8 8 0 01-8.14 8zM8.69 68.22V21.69h13.76v48c0 9-5.7 15.21-14.85 15.21-4.79 0-7-1-7.6-1.26V72.27a14.28 14.28 0 004.07.54c3.17 0 4.62-1.81 4.62-4.59z" fill="#242333" fill-rule="evenodd"/>
</svg>
